<svg xmlns="http://www.w3.org/2000/svg" id="Layer_2" data-name="Layer 2" viewBox="0 0 480 235.74"><defs><style> .cls-1 { fill: #98c000; } .cls-1, .cls-2 { stroke-width: 0px; } .cls-2 { fill: #005aa9; } </style></defs><g id="Layer_1-2" data-name="Layer 1"><g><path class="cls-1" d="m284.27,0h1.69v15.36c0,14.86-3.32,29.52-9.72,42.93l-19.76,41.43h-1.69v-37.93S284.27,0,284.27,0Z"></path><path class="cls-1" d="m225.32,124.73h-1.69s0,15.36,0,15.36c0,14.86,3.32,29.52,9.72,42.93l19.76,41.43h1.69v-37.93s-29.47-61.79-29.47-61.79Z"></path><path class="cls-2" d="m12.55,132.32c8.55,9.45,19.27,15.09,35.27,15.09,12.36,0,22.18-6.73,22.18-15.27,0-7.46-5.82-10.36-24.18-13.46-28.91-4.91-41.09-15.09-41.09-31.64,0-18.18,19.09-28.18,39.82-28.18,18.18,0,32.55,7.63,40.55,16.36l-12,11.82c-7.09-7.09-18.36-11.45-29.27-11.45s-20.73,4.73-20.73,11.82c0,5.27,2.73,10.91,24.91,14.73,26.73,4.55,40.18,11.64,40.18,30s-18,32-40.91,32c-12.18,0-22-2-29.82-6.18-7.64-4.18-13.45-8.91-17.45-14.18l12.55-11.45Zm110.05,29.63V62.13h-18.18v99.82h18.18Zm66.26-99.81l-50.03,8.82v90.98h18.18v-75.71l40.41-7.13-8.56-16.96Zm282.58,0l-50.03,8.82v90.98h18.18v-75.71l40.41-7.13-8.56-16.96Zm-166.92,0l-48.91,100.18h-1.64l-48.91-100.18h19.45l30.18,63.46,30.36-63.46h19.46Zm100.54,76.18c-4.18,7.64-10.55,13.82-19.45,18.73-8.73,4.73-18.18,7.09-28.54,7.09-28.36,0-54.55-18.55-54.55-52.73,0-30,23.27-52.54,53.45-52.54s51.45,21.45,51.45,53.27v7.09h-85.63c1.45,8.54,5.64,15.45,12.55,20.54,6.91,5.09,14.73,7.64,23.63,7.64,15.27,0,26.73-7.82,33.45-18.91l13.64,9.82Zm-71.82-54.73c-6.36,5.27-10.36,12-11.64,20.18h67.82c-2.18-16.73-15.64-28.18-33.27-28.18-8.91,0-16.54,2.73-22.91,8Z"></path><path class="cls-1" d="m357.39,224.45l-4.57-10.49h-20.43l-4.57,10.49h-7.06l21.64-47.85h.4l21.64,47.85h-7.06Zm-22.51-16.13h15.46l-7.66-17.61h-.13l-7.66,17.61Zm35.36,12.5c0-2.56,1.95-4.44,4.44-4.44s4.44,1.88,4.44,4.44-1.95,4.43-4.44,4.43-4.44-1.95-4.44-4.43Zm60.48,0c0-2.56,1.95-4.44,4.43-4.44s4.44,1.88,4.44,4.44-1.95,4.43-4.44,4.43-4.43-1.95-4.43-4.43Zm-6.03-10.01c0-18.15-26.35-9.07-26.35-20.97,0-5.11,4.64-7.6,9.95-7.6,4.97,0,9.21,2.29,12.03,5.31l4.03-4.23c-3.9-4.44-9.68-6.72-16.13-6.72-8.74,0-16.47,4.23-16.47,13.71,0,17.67,26.34,8.67,26.34,20.97,0,5.31-4.7,8.2-10.75,8.2s-10.89-2.55-14.52-6.65l-3.83,4.57c3.54,3.94,8.56,6.76,14.59,7.59l-1.57,10.76h5.11l3.16-10.67c7.43-.89,14.39-5.11,14.39-14.26Z"></path></g></g></svg>