<?xml version="1.0" encoding="UTF-8"?>
<!DOCTYPE svg PUBLIC "-//W3C//DTD SVG 1.1//EN" "http://www.w3.org/Graphics/SVG/1.1/DTD/svg11.dtd">
<!-- Creator: CorelDRAW 2018 (64-Bit) -->
<svg xmlns="http://www.w3.org/2000/svg" xml:space="preserve" width="210mm" height="210mm" version="1.1" style="shape-rendering:geometricPrecision; text-rendering:geometricPrecision; image-rendering:optimizeQuality; fill-rule:evenodd; clip-rule:evenodd"
viewBox="0 0 21000 21000"
 xmlns:xlink="http://www.w3.org/1999/xlink">
 <defs>
  <style type="text/css">
   <![CDATA[
    .fil0 {fill:#98C000}
   ]]>
  </style>
 </defs>
 <g id="Katman_x0020_1">
  <metadata id="CorelCorpID_0Corel-Layer"/>
  <g id="_1239112770528">
   <path class="fil0" d="M7232.91 20581.9l210.55 230.6c110.36,-75.64 2340.17,-2290.01 2638.43,-2675.64l361.71 -432.38c242.97,-278.75 435.25,-540.74 659.48,-840.49 741.54,-991.39 1734.01,-2777.67 2146.5,-3941.6l2194.17 -6188.01c63.68,-190.56 144.95,-387.6 209.86,-584.24 486.7,-1474.57 495.13,-1004.51 226.18,-1406.15 -188.47,126.21 -2818.58,2796.52 -3055.09,3033.03 -517.94,517.94 -1004.03,1005.96 -1523.67,1520.38 -215.16,213 -759.75,1904.44 -864.33,2223.83l-393.25 1106.73c-149.25,377.03 -267.77,754.1 -400.21,1143.87l-2410.33 6810.07z"/>
   <path class="fil0" d="M4188.86 15949.64c0,109.7 110.31,165.9 176.46,264.7 204.8,-137.14 4181.72,-4160.36 4578.76,-4553.4 215.16,-213.01 759.74,-1904.45 864.33,-2223.84l1202.45 -3385.7c135.47,-397.97 248.49,-760.6 400.21,-1143.87l1198.16 -3389.98c68.43,-206.8 127.61,-333.84 199.19,-550.79 63.95,-193.77 165.58,-426.34 203.78,-590.32l-210.56 -230.61 -2822.37 2888.74 -837.23 1059.77c-741.56,991.39 -1734.01,2777.67 -2146.52,3941.6l-1599.43 4488.69c-135.46,397.96 -248.49,760.6 -400.2,1143.87l-404.39 1139.7c-49.68,150.54 -402.64,1092.29 -402.64,1141.44z"/>
  </g>
 </g>
</svg>
